<svg width="787" height="113" viewBox="0 0 787 113" fill="none" xmlns="http://www.w3.org/2000/svg">
<path d="M257.024 8.42381C268.592 0.514921 277.337 -1.54792 284.158 1.08006C290.914 3.68354 295.135 10.6624 298.29 19.0986C301.465 27.59 303.742 38.0881 306.27 48.2793C308.819 58.5535 311.629 68.5498 315.866 76.3574C320.087 84.1355 325.603 89.5294 333.5 90.9892C341.482 92.4642 352.285 90.0009 367.229 81.0722C382.059 72.2117 400.764 57.1032 424.528 33.6484C436.422 20.9657 445.505 14.2369 452.606 12.1719C456.229 11.1184 459.417 11.2558 462.181 12.5176C464.921 13.7683 467.062 16.0407 468.773 18.9189C472.162 24.6208 474.118 33.1465 475.619 42.5224C476.374 47.2408 477.022 52.2365 477.67 57.2724C478.32 62.3166 478.969 67.4033 479.731 72.3398C481.26 82.2436 483.22 91.3865 486.435 98.2051C489.64 105.002 493.936 109.19 500.045 109.831C506.315 110.488 514.982 107.487 527.047 98.5303C539.002 89.6556 554.054 75.1143 573.075 53.166C573.135 52.9818 573.231 52.8061 573.366 52.6504C592.586 30.4433 607.683 16.56 619.739 8.92381C631.782 1.29521 641.078 -0.271392 648.467 2.76267C655.768 5.76122 660.677 13.0558 664.478 21.8095C668.295 30.5992 671.16 41.2692 674.126 51.4345C677.117 61.6825 680.21 71.4106 684.477 78.6279C688.725 85.8124 693.955 90.2169 701.172 90.4121C708.556 90.6114 718.473 86.4411 732.102 75.1562C745.683 63.9108 762.726 45.7912 784.325 18.5566C784.839 17.9076 785.782 17.7987 786.431 18.3135C787.08 18.8283 787.189 19.771 786.674 20.4199C765.023 47.7208 747.832 66.0281 734.016 77.4678C720.249 88.8671 709.607 93.6408 701.092 93.4111C692.411 93.1765 686.402 87.7771 681.895 80.1543C677.407 72.5637 674.225 62.4775 671.248 52.2754C668.246 41.9905 665.446 31.5713 661.726 23.0039C657.99 14.401 653.487 8.06777 647.328 5.53806C641.256 3.04482 633.04 4.04961 621.344 11.458C609.719 18.8219 594.94 32.3442 575.925 54.2783C575.865 54.4632 575.767 54.6396 575.631 54.7959C556.415 76.9991 541.105 91.8294 528.835 100.938C516.617 110.009 507.165 113.594 499.732 112.814C492.139 112.018 487.146 106.745 483.722 99.4844C480.309 92.2445 478.299 82.7292 476.766 72.7978C475.997 67.8167 475.343 62.6897 474.695 57.6553C474.046 52.6128 473.403 47.6625 472.657 42.997C471.154 33.605 469.258 25.6068 466.194 20.4521C464.678 17.9023 462.942 16.1623 460.935 15.2461C458.953 14.3415 456.524 14.1568 453.443 15.0527C447.274 16.8469 438.831 22.8734 427.25 35.1338C427.195 35.2176 427.13 35.2975 427.056 35.3711C426.925 35.5005 426.793 35.6289 426.663 35.7578C426.639 35.7825 426.616 35.8073 426.593 35.832C426.553 35.8745 426.511 35.9133 426.467 35.9502C402.707 59.386 383.858 74.6312 368.768 83.6474C353.582 92.7207 341.997 95.6104 332.956 93.9394C323.83 92.2526 317.686 86.0013 313.229 77.7881C308.788 69.6039 305.903 59.2609 303.358 49.0019C300.792 38.6601 298.576 28.4297 295.48 20.1504C292.363 11.8167 288.533 5.98158 283.079 3.87986C277.689 1.8032 270.061 3.14479 258.717 10.9004C247.48 18.5837 232.944 32.3301 213.925 54.2734C213.865 54.4582 213.768 54.6348 213.633 54.791C194.414 76.9978 179.316 90.8813 167.26 98.5176C155.217 106.146 145.921 107.713 138.532 104.679C131.231 101.68 126.322 94.3858 122.521 85.6318C118.704 76.8421 115.839 66.1723 112.873 56.0068C109.881 45.7587 106.789 36.0308 102.522 28.8135C98.2737 21.6288 93.0435 17.2247 85.8266 17.0293C78.4431 16.8299 68.5256 21.0003 54.8969 32.2851C41.316 43.5306 24.2727 61.6503 2.67427 88.8847C2.15955 89.5337 1.21687 89.6424 0.567825 89.1279C-0.0810526 88.6132 -0.189911 87.6705 0.324661 87.0215C21.9758 59.7207 39.1675 41.4132 52.9829 29.9736C66.7498 18.5743 77.3921 13.8005 85.9067 14.0303C94.5874 14.265 100.597 19.6642 105.104 27.2871C109.592 34.8778 112.774 44.9637 115.751 55.166C118.753 65.451 121.553 75.87 125.273 84.4375C129.009 93.0406 133.512 99.3737 139.671 101.903C145.743 104.396 153.959 103.392 165.655 95.9834C177.28 88.6194 192.059 75.0968 211.074 53.1631C211.134 52.9782 211.231 52.8017 211.367 52.6455C230.58 30.4464 245.407 16.3664 257.024 8.42381Z" fill="#FFD166"/>
</svg>
