<svg width="800" height="126" viewBox="0 0 800 126" fill="none" xmlns="http://www.w3.org/2000/svg">
<path d="M259.855 9.56689C271.909 1.32588 283.073 -2.29929 292.994 1.52295C302.572 5.21329 307.641 14.6711 310.879 23.3306C314.226 32.2812 316.632 43.358 319.079 53.2222C321.636 63.5292 324.285 72.7736 328.079 79.7651C331.789 86.6011 335.947 90.1383 341.183 91.106C346.867 92.1565 355.976 90.6164 370.396 82.0005C384.566 73.534 402.819 58.8598 426.374 35.6187C438.312 22.9024 448.397 15.0246 457.292 12.438C462.089 11.0432 466.924 11.0762 471.383 13.1118C475.71 15.0874 478.729 18.5152 480.862 22.105C484.956 28.9923 487.044 38.6613 488.539 48.0024C489.312 52.8349 489.972 57.9283 490.618 62.9497C491.27 68.0148 491.909 73.0152 492.656 77.855C494.176 87.6993 496.032 96.0353 498.816 101.941C501.547 107.733 504.33 109.57 507.225 109.874C510.975 110.267 517.939 108.529 529.674 99.8179C540.976 91.4273 555.509 77.4666 574.156 55.9995C574.387 55.6192 574.65 55.2514 574.951 54.9038C594.312 32.534 609.902 18.0849 622.761 9.93994C635.557 1.83431 647.195 -0.94879 657.438 3.25732C667.212 7.27149 672.997 16.6475 676.94 25.728C680.966 34.9994 683.976 46.2137 686.867 56.1206C689.887 66.4676 692.784 75.4183 696.573 81.8267C700.26 88.0624 703.803 90.3119 707.849 90.4214C712.781 90.5546 721.128 87.6942 734.457 76.6577C747.53 65.833 764.247 48.1155 785.731 21.0249C788.477 17.5636 793.509 16.9822 796.971 19.7271C800.432 22.4723 801.013 27.5045 798.269 30.9663C776.504 58.4108 758.986 77.1206 744.662 88.981C730.595 100.629 718.383 106.712 707.417 106.416C695.565 106.095 687.868 98.5424 682.8 89.9702C677.833 81.5705 674.457 70.7074 671.508 60.604C668.431 50.0604 665.776 40.1858 662.265 32.1001C658.671 23.8238 655.045 19.5718 651.359 18.0581C648.141 16.7366 642.266 16.5253 631.323 23.4565C620.593 30.2532 606.464 43.0445 587.842 64.4634C587.611 64.8428 587.348 65.2092 587.048 65.5562C567.702 87.9088 552.034 103.146 539.211 112.666C526.661 121.982 515.508 126.829 505.556 125.786C494.748 124.652 488.241 117.031 484.344 108.764C480.5 100.611 478.386 90.2876 476.844 80.2964C476.06 75.2186 475.394 70.0059 474.749 64.9927C474.098 59.9358 473.469 55.083 472.74 50.5317C471.232 41.1052 469.467 34.2499 467.108 30.2808C466.016 28.443 465.157 27.858 464.737 27.6665C464.449 27.5351 463.666 27.2469 461.76 27.8013C457.406 29.0674 450.053 33.89 438.697 45.8726C438.52 46.0895 438.33 46.2999 438.126 46.5015C438.016 46.6098 437.905 46.7167 437.796 46.8247C437.677 46.9503 437.554 47.0709 437.429 47.187C413.551 70.7295 394.31 86.3507 378.603 95.7358C362.892 105.122 349.614 108.935 338.274 106.839C326.486 104.66 318.985 96.5516 314.017 87.396C309.133 78.3958 306.087 67.3007 303.55 57.0747C300.903 46.4061 298.817 36.755 295.893 28.9351C292.859 20.8241 289.875 17.4682 287.242 16.4536C284.953 15.5715 279.745 15.3512 268.887 22.7749C258.437 29.9192 244.494 42.9929 225.845 64.4565C225.614 64.8373 225.35 65.2052 225.049 65.5532C205.688 87.9231 190.098 102.372 177.239 110.517C164.443 118.623 152.805 121.406 142.562 117.2C132.788 113.185 127.003 103.81 123.06 94.729C119.034 85.4575 116.024 74.2433 113.133 64.3364C110.113 53.9894 107.216 45.0387 103.427 38.6304C99.7397 32.3948 96.1973 30.1451 92.1514 30.0356C87.2186 29.9025 78.8715 32.763 65.543 43.7993C52.4701 54.624 35.753 72.3415 14.2686 99.4321C11.5232 102.894 6.49104 103.475 3.0293 100.73C-0.432111 97.9847 -1.01344 92.9524 1.73145 89.4907C23.4965 62.0462 41.0145 43.3364 55.3379 31.4761C69.405 19.8281 81.6175 13.7454 92.583 14.0415C104.435 14.3618 112.132 21.9147 117.2 30.4868C122.167 38.8865 125.543 49.7496 128.492 59.853C131.569 70.3966 134.224 80.2712 137.735 88.3569C141.329 96.6333 144.955 100.885 148.641 102.399C151.859 103.72 157.734 103.932 168.677 97.0005C179.407 90.2039 193.535 77.4126 212.156 55.9946C212.387 55.6147 212.652 55.2482 212.952 54.9009C232.279 32.5709 247.541 17.9868 259.855 9.56689Z" fill="#FFD166"/>
</svg>
